# xmcd
#
# Track frame offsets: 
#        150
#        13607
#        32834
#        55899
#        72083
#        88211
#        103642
#        117953
#        136844
#        158651
#        172563
#        197300
#
# Disc length: 2921 seconds
#
# Revision: 0
# Processed by: cddbd v1.5.2PL0 Copyright (c) Steve Scherf et al.
# Submitted via: ExactAudioCopy v0.99pb1
#
DISCID=8d0b670c
DTITLE=Porch Rockers - Heard It On The News
DYEAR=2003
DGENRE=Blues
TTITLE0=Heard It On The News
TTITLE1=Haven't Heard From You
TTITLE2=Walking With Holes In My Shoes
TTITLE3=When Do You Learn
TTITLE4=Prison
TTITLE5=Maybe You Took The Wrong Turn
TTITLE6=Same Old Saturday Night
TTITLE7=Juke Box Judy
TTITLE8=Shed These Tears
TTITLE9=Will You Be There
TTITLE10=The Bridge
TTITLE11=Extra, Extra
EXTD=
EXTT0=
EXTT1=
EXTT2=
EXTT3=
EXTT4=
EXTT5=
EXTT6=
EXTT7=
EXTT8=
EXTT9=
EXTT10=
EXTT11=
PLAYORDER=
